<svg width="1349" height="1316" viewBox="0 0 1349 1316" fill="none" xmlns="http://www.w3.org/2000/svg">
<rect width="1349" height="1316" rx="100" fill="#8ECAE6"/>
<g filter="url(#filter0_d_319_496)">
<path d="M1036.57 610.012C1039.83 626.939 1041.45 648.423 1041.45 674.465C1041.45 700.181 1035.27 729.315 1022.9 761.867C1010.85 794.094 993.927 825.181 972.117 855.129C950.633 884.751 925.079 912.421 895.457 938.137C866.16 963.527 834.422 985.663 800.242 1004.54C726.674 1044.91 652.456 1065.09 577.586 1065.09C440.216 1065.09 351.023 1016.91 310.008 920.559C296.336 888.332 289.5 853.664 289.5 816.555C289.5 779.445 294.383 744.94 304.148 713.039C314.24 680.812 328.237 649.4 346.141 618.801C364.37 587.876 385.854 557.928 410.594 528.957C435.333 499.986 462.514 472.805 492.137 447.414C522.085 421.698 553.823 398.26 587.352 377.102C621.206 355.943 655.874 337.714 691.355 322.414C766.551 290.513 838.165 274.562 906.199 274.562C1030.55 274.562 1092.72 303.697 1092.72 361.965C1092.72 378.566 1080.35 396.307 1055.61 415.188C1028.27 377.427 990.346 351.06 941.844 336.086C925.242 331.203 904.897 328.762 880.809 328.762C856.72 328.762 828.888 333.645 797.312 343.41C765.737 353.176 735.138 366.685 705.516 383.938C675.893 401.19 648.061 421.861 622.02 445.949C595.978 469.712 573.354 495.917 554.148 524.562C512.156 585.76 491.16 647.447 491.16 709.621C491.16 771.796 506.46 818.671 537.059 850.246C567.983 881.496 612.091 897.121 669.383 897.121C710.398 897.121 753.367 886.867 798.289 866.359C872.182 832.18 922.964 784.165 950.633 722.316C960.398 700.832 965.932 678.046 967.234 653.957C895.945 691.392 829.051 710.109 766.551 710.109C704.376 710.109 662.221 694.81 640.086 664.211C632.273 653.469 628.367 641.587 628.367 628.566C628.367 615.546 632.924 603.827 642.039 593.41C651.479 582.993 663.849 573.391 679.148 564.602C694.773 555.812 712.352 548 731.883 541.164C751.414 534.328 771.596 528.469 792.43 523.586C835.073 513.495 873.159 508.449 906.688 508.449C959.422 508.449 996.531 525.865 1018.02 560.695C1035.92 548.326 1054.47 533.514 1073.68 516.262C1088.65 528.957 1096.14 540.188 1096.14 549.953C1096.14 553.208 1091.42 560.207 1081.98 570.949C1072.87 581.366 1057.73 594.387 1036.57 610.012ZM960.887 596.34C951.772 573.228 931.753 561.672 900.828 561.672C852.651 561.672 807.892 569.81 766.551 586.086C746.368 593.898 736.277 602.199 736.277 610.988C736.277 629.868 758.738 639.309 803.66 639.309C853.465 639.309 905.874 624.986 960.887 596.34Z" fill="white" fill-opacity="0.65" shape-rendering="crispEdges"/>
</g>
<g filter="url(#filter1_d_319_496)">
<path d="M642.5 370.66C618.411 346.572 586.836 334.527 547.773 334.527C492.435 334.527 443.607 349.99 401.289 380.914C356.367 413.141 333.906 452.203 333.906 498.102C333.906 533.909 350.671 567.763 384.199 599.664C371.829 616.591 352.461 630.914 326.094 642.633C318.932 645.888 311.608 647.516 304.121 647.516C296.634 647.516 288.008 645.237 278.242 640.68C268.802 636.122 260.339 629.612 252.852 621.148C235.924 601.943 227.461 578.993 227.461 552.301C227.461 525.608 232.181 500.868 241.621 478.082C251.061 455.296 263.919 434.137 280.195 414.605C296.471 394.749 315.352 376.845 336.836 360.895C358.646 344.944 381.758 331.109 406.172 319.391C457.279 295.628 507.083 283.746 555.586 283.746C604.414 283.746 645.104 292.535 677.656 310.113C753.177 350.803 790.938 442.6 790.938 585.504C790.938 628.798 787.52 676.975 780.684 730.035C836.022 667.21 943.281 570.367 1102.46 439.508C1124.27 421.93 1144.62 405.003 1163.5 388.727C1181.07 344.13 1195.56 314.833 1206.95 300.836C1225.51 277.724 1241.46 266.168 1254.8 266.168C1268.15 266.168 1277.27 269.586 1282.15 276.422C1287.03 282.932 1289.47 289.28 1289.47 295.465C1289.47 301.324 1287.68 307.509 1284.1 314.02C1280.85 320.53 1276.61 327.529 1271.41 335.016C1260.66 349.99 1248.95 364.475 1236.25 378.473C1204.02 553.277 1187.91 729.547 1187.91 907.281C1187.91 970.758 1161.71 1014.05 1109.3 1037.16C1085.53 1047.58 1059.82 1052.79 1032.15 1052.79C990.482 1052.79 954.674 1042.86 924.727 1023C913.008 1015.19 903.893 1006.24 897.383 996.148C932.865 966.526 984.785 866.591 1053.14 696.344C1080.49 627.984 1105.72 558.323 1128.83 487.359L1032.64 583.551C910.566 705.621 822.188 803.928 767.5 878.473C762.617 916.884 748.945 957.411 726.484 1000.05C712.487 1025.77 700.931 1042.86 691.816 1051.32C683.027 1059.79 676.354 1064.02 671.797 1064.02C641.198 1064.02 608.809 1054.9 574.629 1036.68C540.449 1018.45 523.359 1001.36 523.359 985.406C523.359 963.922 543.542 929.905 583.906 883.355C594.974 870.335 606.204 858.128 617.598 846.734C667.728 737.034 692.793 632.867 692.793 534.234C692.793 522.516 691.816 505.1 689.863 481.988C688.236 458.876 681.4 434.625 669.355 409.234C623.783 558.974 558.516 697.646 473.555 825.25C413.659 914.768 352.298 978.082 289.473 1015.19C256.921 1034.4 224.368 1044 191.816 1044C159.264 1044 132.734 1038.95 112.227 1028.86C69.5833 1007.7 48.2617 972.06 48.2617 921.93C48.2617 889.378 56.5625 859.592 73.1641 832.574C82.2786 817.926 92.5326 807.184 103.926 800.348C147.871 831.598 192.142 847.223 236.738 847.223C302.493 847.223 367.76 811.253 432.539 739.312C489.505 675.836 545.82 583.551 601.484 462.457C616.458 429.905 630.13 399.306 642.5 370.66Z" fill="#EF476F"/>
</g>
<defs>
<filter id="filter0_d_319_496" x="289.5" y="274.562" width="830.641" height="819.527" filterUnits="userSpaceOnUse" color-interpolation-filters="sRGB">
<feFlood flood-opacity="0" result="BackgroundImageFix"/>
<feColorMatrix in="SourceAlpha" type="matrix" values="0 0 0 0 0 0 0 0 0 0 0 0 0 0 0 0 0 0 127 0" result="hardAlpha"/>
<feOffset dx="20" dy="25"/>
<feGaussianBlur stdDeviation="2"/>
<feComposite in2="hardAlpha" operator="out"/>
<feColorMatrix type="matrix" values="0 0 0 0 0 0 0 0 0 0 0 0 0 0 0 0 0 0 0.25 0"/>
<feBlend mode="normal" in2="BackgroundImageFix" result="effect1_dropShadow_319_496"/>
<feBlend mode="normal" in="SourceGraphic" in2="effect1_dropShadow_319_496" result="shape"/>
</filter>
<filter id="filter1_d_319_496" x="48.2617" y="266.168" width="1265.21" height="826.852" filterUnits="userSpaceOnUse" color-interpolation-filters="sRGB">
<feFlood flood-opacity="0" result="BackgroundImageFix"/>
<feColorMatrix in="SourceAlpha" type="matrix" values="0 0 0 0 0 0 0 0 0 0 0 0 0 0 0 0 0 0 127 0" result="hardAlpha"/>
<feOffset dx="20" dy="25"/>
<feGaussianBlur stdDeviation="2"/>
<feComposite in2="hardAlpha" operator="out"/>
<feColorMatrix type="matrix" values="0 0 0 0 0 0 0 0 0 0 0 0 0 0 0 0 0 0 0.3 0"/>
<feBlend mode="normal" in2="BackgroundImageFix" result="effect1_dropShadow_319_496"/>
<feBlend mode="normal" in="SourceGraphic" in2="effect1_dropShadow_319_496" result="shape"/>
</filter>
</defs>
</svg>
